/* XPM */
static char *_e9a9d81f2f74593b8882388dac3e03bXOGjqxd05xclt8Qv[] = {
/* columns rows colors chars-per-pixel */
"64 64 156 2 ",
"   c #1C1C1D",
".  c #242118",
"X  c #160E25",
"o  c #0F1221",
"O  c #1C1726",
"+  c #151B24",
"@  c #1E1C24",
"#  c #15162D",
"$  c #1B162C",
"%  c #151D2E",
"&  c #1E1B2C",
"*  c #160F31",
"=  c #171635",
"-  c #1D1634",
";  c #121E34",
":  c #1F1935",
">  c #1E163B",
",  c #141D3A",
"<  c #1E193B",
"1  c #220C2B",
"2  c #2F0E2D",
"3  c #211523",
"4  c #221B23",
"5  c #23152C",
"6  c #2A1629",
"7  c #211B2C",
"8  c #2F1F2C",
"9  c #250D35",
"0  c #211634",
"q  c #2B1535",
"w  c #211A34",
"e  c #22163A",
"r  c #221939",
"t  c #281D3D",
"y  c #331C38",
"u  c #172226",
"i  c #1A2322",
"p  c #14242C",
"a  c #19222B",
"s  c #0C223A",
"d  c #1D2031",
"f  c #12273A",
"g  c #22202E",
"h  c #28202D",
"j  c #20282A",
"k  c #1E1542",
"l  c #1F1947",
"z  c #1F154B",
"x  c #1D1E4D",
"c  c #1F1355",
"v  c #19185A",
"b  c #220E4D",
"n  c #211642",
"m  c #291047",
"M  c #221A43",
"N  c #2B1A44",
"B  c #22144B",
"V  c #2D1C49",
"C  c #321A44",
"Z  c #200A53",
"A  c #221D55",
"S  c #1D2142",
"D  c #2F2240",
"F  c #23079A",
"G  c #1C00AD",
"H  c #1600B4",
"J  c #150EB3",
"K  c #1506BB",
"L  c #2C07A5",
"P  c #210AA0",
"I  c #2500AE",
"U  c #2800AB",
"Y  c #3400A6",
"T  c #2502B6",
"R  c #2B03B4",
"E  c #200AB5",
"W  c #2401BA",
"Q  c #2E04B9",
"!  c #2509BD",
"~  c #340FB5",
"^  c #3104B9",
"/  c #3409BB",
"(  c #1700C0",
")  c #180CC4",
"_  c #2500C5",
"`  c #2B00C1",
"'  c #240AC3",
"]  c #2903CA",
"[  c #3200C9",
"{  c #2F00D2",
"}  c #200BD6",
"|  c #3A00D8",
" . c #2D61D9",
".. c #345EF7",
"X. c #3F5CF6",
"o. c #3558FA",
"O. c #3E5DFE",
"+. c #3466E4",
"@. c #3568E8",
"#. c #3766F2",
"$. c #3D65F5",
"%. c #366EF7",
"&. c #3C68F6",
"*. c #3661FD",
"=. c #3C66FD",
"-. c #3A6AFD",
";. c #435CDA",
":. c #4157E8",
">. c #485EEF",
",. c #5B4DFA",
"<. c #415FF1",
"1. c #4A5BF3",
"2. c #4A56FF",
"3. c #465DFE",
"4. c #4A59FE",
"5. c #5055F9",
"6. c #4566E9",
"7. c #4765F7",
"8. c #4761FE",
"9. c #4C64FE",
"0. c #436AFD",
"q. c #4F69FF",
"w. c #5563FF",
"e. c #96BEFB",
"r. c #8FCEF7",
"t. c #8BCAFD",
"y. c #90CFF0",
"u. c #9CCCF3",
"i. c #94C5FF",
"p. c #93CBFC",
"a. c #9ACCFD",
"s. c #8ED5F3",
"d. c #8BD8F2",
"f. c #88DDF2",
"g. c #8FD9F6",
"h. c #83D6F8",
"j. c #8AD4F9",
"k. c #8ED5FF",
"l. c #86D9F9",
"z. c #8DD8FF",
"x. c #8BDCFF",
"c. c #8FDFFF",
"v. c #91D3F5",
"b. c #9CD3F2",
"n. c #9BD6F6",
"m. c #92D3F9",
"M. c #92D6F9",
"N. c #94D2FF",
"B. c #92D4FF",
"V. c #91D7FF",
"C. c #97D7FF",
"Z. c #9ED3FF",
"A. c #9BD5FB",
"S. c #93DAF8",
"D. c #94DFFC",
"F. c #AACCFA",
/* pixels */
": : : : : : : : : : : : : : : : : : : : : : : : : : : : : : : : : : : : : : : : : : : : : : : : : : : : : : : : : : : : : : : : ",
": : : : : : : : : : : : : : : : : : : : : : : : : : : : : : : : : : : : : : : : : : : : : : : : : : : : : : : : : : : : : : : : ",
": : : : : : : : : : : : : : : : : : : : : : : : : : : : : : : : : : : : : : : : : : : : : : : : : : : : : : : : : : : : : : : : ",
": : : : : : : : : : : : : : : : : : : : : : : : : : : : : : : : : : : : : : : : : : : : : : : : : : : : : : : : : : : : : : : : ",
": : : : : : : : : : : : : : : : : : : : : : : : : : : : : : : : : : : : : : : : : : : : : : : : : : : : : : : : : : : : : : : : ",
": : : : : : : : : : : : : : : : : : : : : : : : : : : : : : : : : : : : : : : : : : : : : : : : : : : : : : : : : : : : : : : : ",
": : : : : : : : : : : : : : : : : : : : : : : : : : : : : : : : : : : : : : : : : : : : : : : : : : : : : : : : : : : : : : : : ",
": : : : : : : : : : : : : : : : : : : : : : : : : : : : : : : : : : : : : : : : : : : : : : : : : : : : : : : : : : : : : : : : ",
": : : : : : : : : : : : : : : : : : : : : : : : : : : : : : : : : : : : : : : : : : : : : : : : : : : : : : : : : : : : : : : : ",
": : : : : : : : : : : : : : : : : : : : : : : : : : : : : : : : : : : : : : : : : : : : : : : : : : : : : : : : : : : : : : : : ",
": : : : : : : : : : : : : : : : : : : : : : : : : : : : : : : : : : : : : : : : : : : : : : : : : : : : : : : : : : : : : : : : ",
": : : : : : : : : : : : : : : : : : : : : : : : : : : : : : : : : : : : : : : : : : : : : : : : : : : : : : : : : : : : : : : : ",
": : : : : : : : : : : : : : : : : : : : : : : : : : : : : : : : : : : : : : : : : : : : : : : : : : : : : : : : : : : : : : : : ",
": : : : : : : : : : : : : : : : : : : : : : : : : : : : : : : : : : : : : : : : : : : : : : : : : : : : : : : : : : : : : : : : ",
": : : : : : : : : : : : : : : : : : : : : : : : : : : : : : : : : : : : : : : : : : : : : : : : : : : : : : : : : : : : : : : : ",
": : : : : : : : : : : : : : : : : : : : : : : : : : : : : : : : : : : : : : : : : : : : : : : : : : : : : : : : : : : : : : : : ",
": : : : : : : : : : : : : : : : : : : : : : : : w r w 7 7 k @ n & < < : : < : & & : : : : : : : : : : : : : : : : : : : : : : : ",
": : : : : : : : : : : : : : : : : : : : : : : : r e e r & > & B < < : & < k > > : : : : : : : : : : : : : : : : : : : : : : : : ",
": : : : : : : : : : : : : : : : : : : : : : : : : : : < : k & &   : r r < & & > : : : : : : : : : : : : : : : : : : : : : : : : ",
": : : : : : : : : : : : : : : : : : : : : : : : & : : : < < & : z k & & > : @ < : : : : : : : : : : : : : : : : : : : : : : : : ",
": : : : : : : : : : : : : : : : : : : : : : : : < z < : > & & < 0 7 4 : z k & : : : : : : : : : : : : : : : : : : : : : : : : : ",
": : : : : : : : : : : : : : : : : : : : : : : : @ & @ & z < < & n e e r : : : < < : : : : : : : : : : : : : : : : : : : : : : : ",
": : : : : : : : : : : : : : : : : : : : : : : : k : : : e 7 B 7 w 7 r e 7 w < @ < < : : : : : : : : : : : : : : : : : : : : : : ",
": : : : : : : : : : : : : : : : : : : : : : : : : & l n 4 r T _ W W _ F M w k & < < : : : : : : : : : : : : : : : : : : : : : : ",
": : : : : : : : : : : : : : : : : : : : : : : : % e 5 V c +.-.u.C.m.s.<.&.> S 3 r r : : : : : : : : : : : : : : : : : : : : : : ",
": : : : : : : : : : : : : : : : : : : : : : : : & M % O U q.r.S.i.N.g.d.| X.  < r r : : : : : : : : : : : : : : : : : : : : : : ",
": : : : : : : : : : : : : : : : : : : : : : : : 5 0 A # P &.y.Z.b.-.3.D.H { w ; r r : : : : : : : : : : : : : : : : : : : : : : ",
": : : : : : : : : : : : : : : : : : : : : : : : e : a w Q 3.B.l.=.;...v.~ R . 9 r r : : : : : : : : : : : : : : : : : : : : : : ",
": : : : : : : : : : : : : : : : : : : : : : : : : e e 7 ,.z.t.9.O.0.=.u.O.G m r r r : : : : : : : : : : : : : : : : : : : : : : ",
": : : : : : : : : : : : : : : : : : : : : : : : # w 4 b R 0.M.@.6.3...x.F.8.+ v r r : : : : : : : : : : : : : : : : : : : : : : ",
": : : : : : : : : : : : : : : : : : : : : : : : g 0 B & E  .p.q.o.7.w.h.@.` l p : : : : : : : : : : : : : : : : : : : : : : : : ",
": : : : : : : : : : : : : : : : : : : : : : : : e r i l R 8.n.*.0.:.$.j.` Q 2 q : : : : : : : : : : : : : : : : : : : : : : : : ",
": : : : : : : : : : : : : : : : : : : : : : : : e e k i ` 2.f.%.$.>.B.a.! R ; 0 e e : : : : : : : : : : : : : : : : : : : : : : ",
": : : : : : : : : : : : : : : : : : : : : : : : O r $ i L #.-.e.c.u.k.&.G R p N e e : : : : : r : : : : : : : : : : : : : : : : ",
": : : : : : : : : : : : : : : : : : : : : : : : 7 t y 1 W 1.p.^ Q W ! 4.U } % 5 e 0 : : : : : : : : : : : : : : : : : : : : : : ",
": : : : : : : : : : : : : : : : : : : : : : : : % < X x D A.) I ^ [ ( / 5.n % e r r r r : : : : : : : : : : : : : : : : : : : : ",
": : : : : : : : : : : : : : : : : : : : : : : : t 5 C k o 5 ' Y K J ] ^ O d w , r r : : : : : : : : : : : : : : : : : : : : : : ",
": : : : : : : : : : : : : : : : : : : : : : : : = n $ s e u 9 j w q 6 1 C r + , 0 0 : : : : : : : : : : : : : : : : : : : : : : ",
": : : : : : : : : : : : : : : : : : : : : : : : e 7 4 M w m - = Z h $ f 6 = r M w 0 : : : : : r : : : : : : : : : : : : : : : : ",
": : : : : : : : : : : : : : : : : : : : : : : : 0 % B * 8 % < S 7 $ p > x 6 > & w w : : : : : : : : : : : : : : : : : : : : : : ",
": : : : : : : : : : : : : : : : : : : : : : : : : : : : : : : : : : : : : : : : : : : : : : : : : : : : : : : : : : : : : : : : ",
": : : : : : : : : : : : : : : : : : : : : : : : : : : : : : : : : : : : : : : : : : : : : : : : : : : : : : : : : : : : : : : : ",
": : : : : : : : : : : : : : : : : : : : : : : : : : : : : : : : : : : : : : : : : : : : : : : : : : : : : : : : : : : : : : : : ",
": : : : : : : : : : : : : : : : : : : : : : : : : : : : : : : : : : : : : : : : : : : : : : : : : : : : : : : : : : : : : : : : ",
": : : : : : : : : : : : : : : : : : : : : : : : : : : : : : : : : : : : : : : : : : : : : : : : : : : : : : : : : : : : : : : : ",
": : : : : : : : : : : : : : : : : : : : : : : : : : : : : : : : : : : : : : : : : : : : : : : : : : : : : : : : : : : : : : : : ",
": : : : : : : : : : : : : : : : : : : : : : : : : : : : : : : : : : : : : : : : : : : : : : : : : : : : : : : : : : : : : : : : ",
": : : : : : : : : : : : : : : : : : : : : : : : : : : : : : : : : : : : : : : : : : : : : : : : : : : : : : : : : : : : : : : : ",
": : : : : : : : : : : : : : : : : : : : : : : : : : : : : : : : : : : : : : : : : : : : : : : : : : : : : : : : : : : : : : : : ",
": : : : : : : : : : : : : : : : : : : : : : : : : : : : : : : : : : : : : : : : : : : : : : : : : : : : : : : : : : : : : : : : ",
": : : : : : : : : : : : : : : : : : : : : : : : : : : : : : : : : : : : : : : : : : : : : : : : : : : : : : : : : : : : : : : : ",
": : : : : : : : : : : : : : : : : : : : : : : : : : : : : : : : : : : : : : : : : : : : : : : : : : : : : : : : : : : : : : : : ",
": : : : : : : : : : : : : : : : : : : : : : : : : : : : : : : : : : : : : : : : : : : : : : : : : : : : : : : : : : : : : : : : ",
": : : : : : : : : : : : : : : : : : : : : : : : : : : : : : : : : : : : : : : : : : : : : : : : : : : : : : : : : : : : : : : : ",
": : : : : : : : : : : : : : : : : : : : : : : : : : : : : : : : : : : : : : : : : : : : : : : : : : : : : : : : : : : : : : : : ",
": : : : : : : : : : : : : : : : : : : : : : : : : : : : : : : : : : : : : : : : : : : : : : : : : : : : : : : : : : : : : : : : ",
": : : : : : : : : : : : : : : : : : : : : : : : : : : : : : : : : : : : : : : : : : : : : : : : : : : : : : : : : : : : : : : : ",
": : : : : : : : : : : : : : : : : : : : : : : : : : : : : : : : : : : : : : : : : : : : : : : : : : : : : : : : : : : : : : : : ",
": : : : : : : : : : : : : : : : : : : : : : : : : : : : : : : : : : : : : : : : : : : : : : : : : : : : : : : : : : : : : : : : ",
": : : : : : : : : : : : : : : : : : : : : : : : : : : : : : : : : : : : : : : : : : : : : : : : : : : : : : : : : : : : : : : : ",
": : : : : : : : : : : : : : : : : : : : : : : : : : : : : : : : : : : : : : : : : : : : : : : : : : : : : : : : : : : : : : : : ",
": : : : : : : : : : : : : : : : : : : : : : : : : : : : : : : : : : : : : : : : : : : : : : : : : : : : : : : : : : : : : : : : ",
": : : : : : : : : : : : : : : : : : : : : : : : : : : : : : : : : : : : : : : : : : : : : : : : : : : : : : : : : : : : : : : : ",
": : : : : : : : : : : : : : : : : : : : : : : : : : : : : : : : : : : : : : : : : : : : : : : : : : : : : : : : : : : : : : : : "
};
