/* XPM */
static char *e52c656c9d9c45e2adddbaaeec37bfaeJAUAhobRSNDyExxf[] = {
/* columns rows colors chars-per-pixel */
"64 64 154 2 ",
"   c #070115",
".  c #0A0217",
"X  c #0D021C",
"o  c #10041F",
"O  c #1D0A1C",
"+  c #240D17",
"@  c #210C1A",
"#  c #2E111B",
"$  c #0F0224",
"%  c #130423",
"&  c #180627",
"*  c #170823",
"=  c #190922",
"-  c #170329",
";  c #1B062C",
":  c #1D0C2D",
">  c #1E0533",
",  c #1F0830",
"<  c #290F21",
"1  c #210D2C",
"2  c #3E1527",
"3  c #3F1F20",
"4  c #200535",
"5  c #220833",
"6  c #250739",
"7  c #27083B",
"8  c #2A093D",
"9  c #2F113E",
"0  c #37103F",
"q  c #5C251C",
"w  c #5F281E",
"e  c #6A3C0C",
"r  c #652C1B",
"t  c #6B2C1E",
"y  c #673019",
"u  c #793E12",
"i  c #7C331D",
"p  c #7E381C",
"a  c #4F1B3E",
"s  c #501B3D",
"d  c #482321",
"f  c #552C25",
"g  c #5B2E25",
"h  c #58262A",
"j  c #5E3025",
"k  c #633125",
"l  c #6A3224",
"z  c #743624",
"x  c #7A3724",
"c  c #793824",
"v  c #7F3734",
"b  c #77343E",
"n  c #7E363A",
"m  c #7F450F",
"M  c #7C4211",
"N  c #2D0B41",
"B  c #330D46",
"V  c #340D48",
"C  c #351145",
"Z  c #3A1A42",
"A  c #371049",
"S  c #3C134C",
"D  c #3E154E",
"F  c #411442",
"G  c #4A1943",
"H  c #42174D",
"J  c #411A4D",
"K  c #401650",
"L  c #441B52",
"P  c #461B53",
"I  c #451B55",
"U  c #4B1F57",
"Y  c #4D1F57",
"T  c #46224E",
"R  c #4C2451",
"E  c #4D2156",
"W  c #502457",
"Q  c #5F2D57",
"!  c #50215A",
"~  c #54275A",
"^  c #54265B",
"/  c #54255C",
"(  c #56285B",
")  c #57295E",
"_  c #5A2B5E",
"`  c #5B2C5E",
"'  c #5C2C5F",
"]  c #672F4E",
"[  c #6D324B",
"{  c #723346",
"}  c #652F55",
"|  c #743656",
" . c #733658",
".. c #6B3361",
"X. c #683264",
"o. c #933D1F",
"O. c #833A23",
"+. c #863C23",
"@. c #893D23",
"#. c #8B3D23",
"$. c #8F3D27",
"%. c #86392E",
"&. c #933E21",
"*. c #923E23",
"=. c #933E23",
"-. c #8C4F0A",
";. c #8F530A",
":. c #915409",
">. c #A65C0D",
",. c #AA4C1F",
"<. c #B3521C",
"1. c #BC5B18",
"2. c #AD6209",
"3. c #B96C05",
"4. c #AB6213",
"5. c #BE6116",
"6. c #894022",
"7. c #954023",
"8. c #984122",
"9. c #9C4323",
"0. c #9E4322",
"q. c #A24422",
"w. c #A84722",
"e. c #A84920",
"r. c #C17104",
"t. c #DD760C",
"y. c #DD780C",
"u. c #C56414",
"i. c #CB6615",
"p. c #C56A12",
"a. c #CB6912",
"s. c #D46E11",
"d. c #DA7110",
"f. c #E57D05",
"g. c #E27A0C",
"h. c #EC8505",
"j. c #F48B03",
"k. c #FE9400",
"l. c #F79208",
"z. c #FD9A0D",
"x. c #F89B19",
"c. c #FB9E19",
"v. c #FFA114",
"b. c #FCA11D",
"n. c #FBA424",
"m. c #FBAB34",
"M. c #F9B54C",
"N. c #F9B952",
"B. c #F8BE61",
"V. c #F7C064",
"C. c #F8C064",
"Z. c #F7C46E",
"A. c #F7C673",
"S. c #F7C877",
/* pixels */
"% % % % % % % % % % % % X X % % % % % % % % % X X % % % % % % % % % % % % % % X X % % % % % % % % % X X % % % % % % % % % % % % ",
"4 4 4 4 4 4 4 4 4 4 4 > % % 4 4 4 4 4 4 4 4 > % % 4 4 4 4 4 4 4 4 4 4 4 4 4 4 % % > 4 4 4 4 4 4 4 4 % % > 4 4 4 4 4 4 4 4 4 4 4 ",
"4 4 4 4 > > 4 4 4 4 > % % > 4 4 > 4 4 4 4 4 % % > 4 4 4 > 4 4 4 4 4 4 4 4 4 4 > % % 4 4 4 4 4 4 4 4 > % % > 4 4 4 4 4 4 4 4 > > ",
"4 4 4 4 > 4 4 4 4 > % - > 4 4 4 4 4 4 4 4 4 % - 4 4 4 4 > 4 4 4 4 4 4 4 4 4 4 4 - % 4 4 4 4 4 4 4 4 4 > - % > 4 4 4 4 4 4 4 > > ",
"4 4 4 4 > > 4 4 4 > - > 4 4 4 4 4 4 4 4 4 4 % X % % % > 4 4 4 4 4 4 4 4 > % % % X % 4 4 4 4 4 4 4 4 4 4 > - > 4 4 4 4 4 4 4 4 4 ",
"4 4 4 4 4 4 4 4 4 4 4 4 4 4 4 4 4 4 4 4 4 4 % X % % % - > 4 4 4 4 4 4 > - % % % X % 4 4 4 4 4 4 4 4 4 4 4 4 4 4 4 4 4 4 4 4 4 4 ",
"4 4 4 4 4 4 4 4 4 4 4 4 4 4 4 4 4 4 4 4 4 4 % - 4 4 4 % ; 4 4 4 4 4 4 ; % 4 4 4 - % 4 4 4 4 4 4 4 4 4 4 4 4 4 4 4 4 4 4 4 4 4 4 ",
"4 4 4 4 4 4 4 4 4 4 4 4 4 4 4 4 4 4 4 4 4 4 % % > 4 4 > 4 4 4 4 4 4 4 4 > 4 4 > % % 4 4 4 4 4 4 4 4 4 4 4 4 4 4 4 4 4 4 4 4 4 4 ",
"4 4 4 4 4 4 4 4 4 4 4 4 4 4 4 4 4 4 4 4 4 4 > % % 4 4 4 4 4 4 4 4 4 4 4 4 4 4 % % > 4 4 4 4 4 4 4 4 4 4 4 4 4 4 4 4 4 4 4 4 4 4 ",
"4 4 4 4 4 4 4 4 4 4 4 4 4 4 4 4 4 > > 4 N N N - - N N N N N N N N N N N N N N - - N N N 4 > > 4 4 4 4 4 4 4 4 4 4 4 4 4 4 4 4 4 ",
"4 4 4 4 4 4 4 4 4 4 4 4 4 4 > 4 7 8 8 N B B B 7 5 8 B B B B B B B B B B B B 8 5 7 B B B N 8 8 7 4 > 4 4 4 4 4 4 4 4 4 4 4 4 4 4 ",
"4 4 4 4 4 4 4 4 > ; > 4 4 4 6 7 B B B B B B B B N 7 N N B B B B B B B B N N 7 N B B B B B B B B 7 6 4 4 4 > ; > 4 4 4 4 4 4 4 4 ",
"4 4 4 4 4 4 4 4 ; X > 4 4 8 B B B B B B B B B B B B 6 4 8 B B B B B B 8 4 6 B B B B B B B B B B B B 8 4 4 > X ; 4 4 4 4 4 4 4 4 ",
"4 4 4 4 4 4 4 4 ; X > 4 8 B B B B B B B B B B B B B B B 7 8 B B B B 8 7 B B B B B B B B B B B B B B B 8 4 > X ; 4 4 4 4 4 4 4 4 ",
"4 4 4 4 4 4 4 4 ; X > 8 B B B B B B B B B B B B B B B B 6 7 B B B B 7 6 B B B B B B B B B B B B B B B B 8 > X ; 4 4 4 4 4 4 4 4 ",
"4 4 4 > > > 7 N 7 ; 8 B B B B B B B B B B B B B B B B B N N B B B B N N B B B B B B B B B B B B B B B B B 8 ; 7 N 7 > > > 4 4 4 ",
"> > 4 8 8 7 N B B 8 8 B B B B B B B B B B B B B A P I I I I I I I I I I I I P A B B B B B B B B B B B B B 8 8 B B N 7 8 8 4 > > ",
"6 6 8 B B B B B B B 7 8 B B B B B B A D D V S D U X. .| ....| | | | ....|  .X.U D S V D D A B B B B B B 8 7 B B B B B B B 8 6 6 ",
"N N N B B B B B B B N 4 7 B B B B N J ' ( C E ` _ } $.&.[ { &.&.&.&.{ [ &.$.} _ ` E C ( ' J N B B B B 7 4 N B B B B B B B N N N ",
"o o o o o o o o o o o X X o o o o o % * * % % * * = O @ = = @ @ @ @ = = @ O = * * % % * * % o o o o o X X o o o o o o o o o o o ",
". . . . . . . . . . . . . . . . . . . . . .   - 7 6 4 4 6 6 4 4 4 4 6 6 4 4 6 7 -   . . . . . . . . . . . . . . . . . . . . . . ",
"- - - - - - - - % - ; - X % 5 ; X . . . X ; , 8 V A Y ! D K ! ! ! ! K D ! Y A V 8 , ; X . . . X ; 5 % X - ; - % - - - - - - - - ",
"4 4 4 4 4 4 4 4 4 4 B N - - V B % . . X - B V B A P / R 9 C T T T T C 9 R / P A B V B - X . . % B V - - N B 4 4 4 4 4 4 4 4 4 4 ",
"4 4 4 4 4 4 4 4 4 4 B V ; - B B % . X - B B B V P ^ 8 % O @ @ @ @ @ @ O % 8 ^ P V B B B - X . % B B - ; V B 4 4 4 4 4 4 4 4 4 4 ",
"4 4 4 4 4 4 4 4 4 4 B V ; - B B % . - B B B B Y E 5 X X r 8.&.&.&.&.8.r X X 5 E Y B B B B - . % B B - ; V B 4 4 4 4 4 4 4 4 4 4 ",
"4 4 4 4 4 4 4 4 6 N B V ; - B B % . ; B B B ! P 5 X X t z l l l l l l z t X X 5 P ! B B B ; . % B B - ; V B N 6 4 4 4 4 4 4 4 4 ",
"4 4 > % > 4 4 > 6 B B B ; - B B % - 8 B V E Z : < w 3 l k f f f f f f k l 3 w < : Z E V B 8 - % B B - ; B B B 6 > 4 4 > % > 4 4 ",
"4 > % % > 4 > 4 8 B B B ; - B B % > B B V E : + t 9.j f f f g z f f f f f j 9.t + : E V B B > % B B - ; B B B 8 4 > 4 > % % > 4 ",
"> % % 4 4 4 4 8 B B B V ; - B B % - 8 B B N $ q w.+.f f f g z @.g f f f f f +.w.q $ N B B 8 - % B B - ; V B B B 8 4 4 4 4 % % > ",
"% % > > > > 7 B N N N B ; - B B % - 8 B B 4 % w @.f f f f c &.k g g f f f f f @.w % 4 B B 8 - % B B - ; B N N N B 7 > > > > % % ",
"X X X X X X X o o o o o X - B B % 5 B D ^ * t x g f f f f c q.8.8.8.z f f f f g x t * ^ D B 5 % B B - X o o o o o X X X X X X X ",
"7 - X ; ; ; ; ; ; ; ; ; 5 8 B B % 5 B D _ * i O.f g @.@.l z q.q.q.w.z l @.@.g f O.i * _ D B 5 % B B 8 5 ; ; ; ; ; ; ; ; ; X - 7 ",
"V 5 % 4 4 4 4 4 4 4 4 4 8 V B B % ; N G b O 2 h k O.q.w.@.@.q.q.9.q.z z w.q.O.k h 2 O b G N ; % B B V 8 4 4 4 4 4 4 4 4 4 % 5 V ",
"V , % 4 4 4 4 4 4 4 4 > 8 B B B % ; N s o.@ d j z w.q.q.q.q.q.w.1.,.z l q.q.w.z j d @ o.s N ; % B B B 8 > 4 4 4 4 4 4 4 4 % , V ",
"V , % 4 4 4 4 4 4 4 4 4 8 B B B % 5 B G %.O 3.4.l q.q.q.q.q.9.,.j.u.O.z q.q.q.l 4.3.O %.G N 5 % B B B 8 4 4 4 4 4 4 4 4 4 % , V ",
"V , % 4 4 4 4 4 4 4 4 N B B B B % - 8 H Q = 3.4.l 9.9.q.q.q.9.,.j.k.u.9.9.9.9.l 4.3.= Q H 8 - % B B B B N 4 4 4 4 4 4 4 4 % , V ",
"V , % 4 4 4 4 4 4 4 N 7 8 B B B % 5 N G %.O 3.4.f k l 8.q.q.9.,.j.k.j.s.&.l l f 4.3.O %.G N 5 % B B B 8 7 N 4 4 4 4 4 4 4 % , V ",
"V , % 4 4 4 4 > 4 N B N 8 8 B B % ; N s &.@ 3.p.O.O.O.8.q.q.9.,.j.k.k.j.a.+.O.O.p.3.@ &.s N ; % B B 8 8 N B N 4 > 4 4 4 4 % , V ",
"V , % 4 4 4 4 6 N V V V N 8 N B % % 7 a &.@ 3.d.q.w.w.q.q.9.,.a.j.n.c.k.h.e.w.q.d.3.@ &.a 7 % % B N 8 N V V V N 6 4 4 4 4 % 5 V ",
"8 - X ; ; ; ; 5 7 7 7 7 7 7 7 B % - N a &.@ >.5.@.&.q.q.q.9.1.k.c.B.m.k.h.e.&.@.5.>.@ &.a N - % B 7 7 7 7 7 7 7 5 ; ; ; ; X - 8 ",
"X X X X X X X o o o o o X & B B % 5 V a &.@ p 6.g l 9.q.q.q.1.c.C.S.m.k.h.q.l g 6.p @ &.a V 5 % B B & X o o o o o X X X X X X X ",
"> > > > > > 7 N N N N N - - B B % 5 V a @.@ 2.a.&.8.q.q.9.u.x.V.A.S.m.k.h.e.8.&.a.2.@ @.a V 5 % B B - ; N 8 N N N 7 > > > > > > ",
"4 4 4 4 4 8 B B B B B V ; - B B % 5 B H ] = 3.s.q.w.q.q.a.j.b.A.A.S.m.f.<.q.w.q.s.3.= ] H B 5 % B B - ; V B B B B B 8 4 4 4 4 4 ",
"4 4 > 4 8 B B B B B B B ; - B B % 5 V G b O 3.s.&.O.9.q.y.k.b.A.S.M.v.t.9.9.O.&.s.3.O b G V 5 % B B - ; B B B B B B B 8 4 > 4 4 ",
"> 4 7 8 B B B B B B B B ; - B B % 5 V G v O 3.d.O.k 9.q.y.k.b.Z.M.z.h.u.q.9.k O.d.3.O v G V 5 % B B - ; B B B B B B B B 8 7 4 > ",
"4 8 B B B B B B B B B B ; - B B % 5 B H _ = 2.u.c k &.9.s.j.b.N.z.j.u.9.9.&.k c u.2.= _ H B 5 % B B - ; B B B B B B B B B B 8 4 ",
"N B N 6 B B B B B B B B ; - B B % - 8 D ) * p 6.f f k 8.q.a.k.l.j.1.q.q.8.k f f 6.p * ) D 8 - % B B - ; B B B B B B B B 6 N B N ",
"B N 4 4 6 B B B B B B V ; - B B % - 8 V C o 2.u.&.&.&.9.9.e.<.<.<.w.9.q.9.7.7.&.u.2.o C V 8 - % B B - ; V B B B B B B 6 4 4 N B ",
"- - % % % - - - - - - - o % 7 7 % - 8 V N o r.d.q.<.t.<.i.g.g.g.g.<.i.a.w.w.w.w.d.r.o N V 8 - % 7 7 % o - - - - - - - % % % - - ",
"; % X % % % % X . % % % % - > > X % ; 5 ; X e u q r -.r M :.:.:.;.y u m q w w q u e X ; 5 ; % X > > - % % % % . X % % % % X % ; ",
"V 5 % 6 6 6 6 ; - 6 6 6 6 6 6 6 % o - % - 1 : : : : : : < # # # # # # < : : : : : : 1 - % - o % 6 6 6 6 6 6 6 - ; 6 6 6 6 % 5 V ",
"V ; - B B B B 8 6 B B B B B B B % 5 B B B ^ _ _ _ _ _ _ n &.&.&.&.&.&.n _ _ _ _ _ _ ^ B B B 5 % B B B B B B B 6 8 B B B B - ; V ",
"V ; - B B B B B B B B B B B B B % - 6 4 6 7 7 7 7 7 7 7 0 F F F F F F 0 7 7 7 7 7 7 7 6 4 6 - % B B B B B B B B B B B B B - ; V ",
"V ; - B B B B B B B B B B B B B % X ; N N N N J ^ ^ W B N P ) / / ) P N B W ^ ^ J N N N N ; X % B B B B B B B B B B B B B - ; V ",
"V ; - B B B B B B B B B B B B B 6 o - 8 8 8 8 C J J J N 8 C J J J J C 8 N J J J C 8 8 8 8 - o 6 B B B B B B B B B B B B B - ; V ",
"V ; - B B B B B B B B B B B B B V 6 - - - - - - - - - - - - - - - - - - - - - - - - - - - - 6 V B B B B B B B B B B B B B - ; V ",
"V ; - B B B B B B B B B B B B B B V 6 % % X X X X X X X X X X X X X X X X X X X X X X % % 6 V B B B B B B B B B B B B B B - ; V ",
"B ; - B B B B B B B B B B B B B B B B B N o - > > > > > > > > > > > > > > > > > > - o N B B B B B B B B B B B B B B B B B - ; B ",
"N 5 - B B B B B B B B B B B B B B B B V B o ; 4 4 4 4 4 4 4 4 4 4 4 4 4 4 4 4 4 4 ; o B V B B B B B B B B B B B B B B B B - 5 N ",
"- % X & & & & - - & & & - - & & & & & - - . X % % % % % % % % % % % % % % % % % % X . - - & & & & & - - & & & - - & & & & X % - ",
"; ; ; ; ; ; ; - - - ; ; % X ; ; ; ; ; ; ; ; - - ; ; ; ; ; ; ; ; ; ; ; ; ; ; ; ; - - ; ; ; ; ; ; ; ; X % ; ; - - - ; ; ; ; ; ; ; ",
"B V B B B B B 8 6 B B V ; - B B B B V B B B 8 8 B B B B B B B B B B B B B B B B 8 8 B B B V B B B B - ; V B B 6 8 B B B B B V B ",
"8 B B B B B 8 4 6 B B B ; - B B B B B B B B B 8 7 B B B B B B B B B B B B B B 7 8 B B B B B B B B B - ; B B B 6 4 8 B B B B B 8 ",
"4 4 7 B B B 7 7 B B B B ; - B B B 8 4 7 B B B B B B B B B 8 6 B B 6 8 B B B B B B B B B 7 4 8 B B B - ; B B B B 7 7 B B B 7 4 4 "
};
