/* XPM */
static char *_03a5ef77fcb4a20a170494d70f48356YWT14tOYJkOiTRPZ[] = {
/* columns rows colors chars-per-pixel */
"64 64 186 2 ",
"   c #1C000F",
".  c #170D0E",
"X  c #1A0F0D",
"o  c #13100B",
"O  c #1B100E",
"+  c #121A0D",
"@  c #0F0E1C",
"#  c #150B17",
"$  c #1E0F16",
"%  c #150F1D",
"&  c #1B0E1C",
"*  c #1D051D",
"=  c #0C131A",
"-  c #0B191C",
";  c #0A1E15",
":  c #111016",
">  c #15111E",
",  c #19121E",
"<  c #131A1D",
"1  c #1D191B",
"2  c #1C1E13",
"3  c #270A0E",
"4  c #230E1C",
"5  c #2A0C1E",
"6  c #271E15",
"7  c #201418",
"8  c #07201D",
"9  c #0A201D",
"0  c #0C0B24",
"q  c #140721",
"w  c #1F0123",
"e  c #120E21",
"r  c #1E0E22",
"t  c #1C0629",
"y  c #1E0D2D",
"u  c #0F1921",
"i  c #061E28",
"p  c #0D1323",
"a  c #151322",
"s  c #1B1423",
"d  c #161A23",
"f  c #1D1926",
"g  c #14142B",
"h  c #1C162B",
"j  c #111B2D",
"k  c #1E192C",
"l  c #0E1738",
"z  c #131730",
"x  c #1E1735",
"c  c #161D37",
"v  c #1F1935",
"b  c #161D3A",
"n  c #1F1839",
"m  c #2F0626",
"M  c #250920",
"N  c #220C29",
"B  c #280F2C",
"V  c #221523",
"C  c #291222",
"Z  c #211A27",
"A  c #221629",
"S  c #231B2C",
"D  c #291C2E",
"F  c #2D152B",
"G  c #3A1026",
"H  c #311D28",
"J  c #2A0B32",
"K  c #250C33",
"L  c #211732",
"P  c #201B32",
"I  c #231B32",
"U  c #211A32",
"Y  c #251B32",
"T  c #221D31",
"R  c #211C33",
"E  c #211C32",
"W  c #221E30",
"Q  c #251D32",
"!  c #201A34",
"~  c #211B35",
"^  c #201A36",
"/  c #211B37",
"(  c #211835",
")  c #221D36",
"_  c #221B34",
"`  c #291A32",
"'  c #2A1D33",
"]  c #27143C",
"[  c #2E1638",
"{  c #201938",
"}  c #22183B",
"|  c #221B3A",
" . c #2C1E3B",
".. c #2C1531",
"X. c #301735",
"o. c #3A1034",
"O. c #311E3A",
"+. c #152026",
"@. c #1F212E",
"#. c #1A222D",
"$. c #14292E",
"%. c #0A2A34",
"&. c #1B2232",
"*. c #102A39",
"=. c #1C2E39",
"-. c #072628",
";. c #212226",
":. c #25202E",
">. c #2B232E",
",. c #222B2A",
"<. c #332323",
"1. c #252132",
"2. c #262031",
"3. c #282131",
"4. c #2A2136",
"5. c #292133",
"6. c #222834",
"7. c #232639",
"8. c #2B223A",
"9. c #25293D",
"0. c #1E1B46",
"q. c #251540",
"w. c #251941",
"e. c #2B1846",
"r. c #391948",
"t. c #1C2349",
"y. c #142143",
"u. c #063443",
"i. c #153D4F",
"p. c #0A3A51",
"a. c #093A5B",
"s. c #113452",
"d. c #153C59",
"f. c #222848",
"g. c #233543",
"h. c #153D61",
"j. c #2E3E60",
"k. c #343E61",
"l. c #3B3D64",
"z. c #124E59",
"x. c #005B5E",
"c. c #0B576E",
"v. c #085468",
"b. c #19506F",
"n. c #0A4370",
"m. c #00557B",
"M. c #105572",
"N. c #17507D",
"B. c #2E5F6D",
"V. c #006B7E",
"C. c #12667E",
"Z. c #1B687A",
"A. c #0F7579",
"S. c #1E7B83",
"D. c #0D7EA0",
"F. c #067CAA",
"G. c #06829E",
"H. c #0F869A",
"J. c #198798",
"K. c #0480A2",
"L. c #1688A3",
"P. c #0F81B3",
"I. c #1890B2",
"U. c #3A91A5",
"Y. c #4AA1BC",
"T. c #199EC1",
"R. c #039CD6",
"E. c #00ABC6",
"W. c #00BAC5",
"Q. c #09B1CE",
"!. c #00BACE",
"~. c #21A1C4",
"^. c #2BBDE6",
"/. c #54AAC5",
"(. c #07C1E7",
"). c #36CEE5",
"_. c #2AD0E8",
"`. c #33C4F0",
"'. c #34D3FD",
"]. c #60C7C6",
"[. c #63C1CD",
"{. c #4FC2EE",
"}. c #4BCDED",
"|. c #62D8FE",
" X c #60E1E7",
".X c #6FE8F1",
/* pixels */
"v v v v v v v v v v v v v v v v v v v v v v v v v v x x v v v v v ! ! ! ! ! ! ! v v v v v v v v v v v v v v v v v v v v v v v v ",
"v v v v v v v v v v v v v v v v v v v v v v v v v v v v v v v v v v v v v ! ! ! v v v v v v v v v v v v v v v v v v v v v v v v ",
"v v v v v v v v v v v v v v v v v v v v v v v v ! ! v v v v v v x x v n v v v v v v v v v v v v v v v v v v v v v v v v v v v v ",
"v v v v v v v v v v v v v v v v v v v v v v v v v v v v v v v v x x x x x x v v v v v v v v v v v v v v v v v v v v v v v v v v ",
"v v v v v v v v v v v v v v v v v v v v v v v v v v v v v v v v v v v v v x x x v v v v v v v v v v v v v v v v v v v v v v v v ",
"v v v v v v v v v v v v v v v v v v v v v v v v v v v v v v P P W W P ! v v x x v v v v v v v v v v v v v v v v v v v v v v v v ",
"v v v v v v v v v v v v v v v v v v v v v v v v ! ! ! P P P P P W S W W ! v v x v v v v v v v v v v v v v v v v v v v v v v v v ",
"v v v v v v v v v v v v v v v v v v v v v v v v ! ! ! P P Q Q Q :.S W W ) ! v v v v v v v v v v v v v v v v v v v v v v v v v v ",
"v v v v v v v v v v v v v v v v v v v v { ! v v ! P Y Y f f f f f S 2.W v v { { ! v v v v v v v v v v v v v v v v v v v v v v v ",
"v v v v v v v v v v v v v v v v v v v v v v v v h P P h a s s > f S 5.2.) ! v x { v v v v v v v v v v v v v v v v v v v v v v v ",
"v v v v v v v v v v v v v v v v v v v x v v v v v 1.W f > > > > s A S 2.Q W v v v v v v v v v v v v v v v v v v v v v v v v v v ",
"v v v v v v v v v v v v v v v v ! v v x x v v v v v h s s % % > s f A S S S k W n v v v v v v v v v v v v v v v v v v v v v v v ",
"v v v v v v v v v v v v v v v v ! v v x x v v v v v h > , , , s s f A S D f s h x x v v v v v v v v v v v v v v v v v v v v v v ",
"v v v v v v v v v v v v v v v v v v v x v v v v x 4.A % , f s % a a s S S f a s k v v v v v v v v v v v v v v v v v v v v v v v ",
"v v v v v v v v v v v v v v v v v v v v v v v v x ) h % a > @ a d > a A S A h h h k v v ! ! v v v v v v v v v v v v v v v v v v ",
"v v v v v v v v v v v v v v v v v v v v { ! v v ) v h k @.d g 7.6.f a A 5.2.S W h h v v ! { v v v v v v v v v v v v v v v v v v ",
"v v v v v v v v v v v v v v v v v v v v v v ! ) 0.; . t.v.9 $ M.A.g 5 d #.O.` @.f h k v { v v v v v v v v v v v v v v v v v v v ",
"v v v v v v v v v v v v v v v v v v v v v v v ! J 1 , t c < & b u.e & < S ' Y 2.f h v v v v v P v v v v v v v v v v v v v v v v ",
"v v v v v v v v v v v v v v v v ! v v ! v v v ! S A V > > r V % q s < = D L S 5.f h v ! v v v ! v v v v v v v v v v v v v v v v ",
"v v v v v v v v v v v v v v v v ! v v ! v v v ! $.A s 8 - r s = M f d > ` Y h f s h W ! v v v ! v v v v v v v v v v v v v v v v ",
"v v v v v v v v v v v v v v v v v v v ! ! v v ! P S A s a , & % s % A S 4.D s > s h W W v v v v v v v v v v v v v v v v v v v v ",
"v v v v v v v v v v v v v v v v v x v ! ! ! v ! [ 1.S ..h > $ s u @ D D :.f & < s A W W v v v x v v v v v v v v v v v v v v v v ",
"v v v v v v v v v v v v v v v v v v v ! ! ! v v W k A Q a > % d a s D V d > 4 f f S W W v v { x v v v v v v v v v v v v v v v v ",
"v v v v v v v v v v v v v v v v ! v v ! ! ! v v S S S S # & s & * 1.h , < : V s S S 2.P v ! { v v v v v v v v v v v v v v v v v ",
"v v v v v v v v v v v v v v v v k ! ! x | v k k s f s f h > s f S A , s s % f A 5.Q Q Q ) ! x x ! ! ! v v v ! ! v v v v v v v v ",
"v v v v v v v v v v v v v v v v ! v x x x P Q S A s s h :.> s f S A s s > % A Q Q S S Q W v x x ! ! v v v v v v v v v v v v v v ",
"v v v v v v v v v v v v v v v v | x x | h Q 2.A S f > f S s f A S S s s s s S 2.5.Q Q Q Q ) ! ! v v v v v v v v v v v v v v v v ",
"v v v v v v v v v v v v v v v v v x v | P Q A f S A f s A s A S 2.S s > f S 5.S S S S Q Q W W ! v v v v v v v v v v v v v v v v ",
"v v v v v v v v v v v v v v v v v n ! P 4.S f f A S A f A s S S S S s s f :.:.f s f f h S P P P v v v v v v v v v v v v v v v v ",
"v v v v v v v v v v v v v v v v v | ! h 4.f f A s s f A ' s A Q S Q h f s f f s f A A A S Q Q P v v v v v v v v v v v v v v v v ",
"v v v v v v v v v v v v v v v v ! ! P v S f h :.h h s A 5.h S 2.Q 2.h f s s f s A A S S 2.5.Q Q ! ! v v v v v v v v v v v v v v ",
"v v v v v v v v v v v v v v v v ! x P 4.h h S :.9.7.k s Q S 2.S Q S s s f f S A % s f A S 2.Q Q ! ! ! v v v ! ! v v v v v v v v ",
"v v v v v v v v v v v v v v v v c Z B t.6 A  .g.P.E.N.N ,.S v 5.< A y s <.) r.;.f f s s h :.:.Q S P ! { v v v v v v v v v v v v ",
"v v v v v v v v v v v v v v v v q.v v f.7 B./.Y.G.v.-.+ >.e.| 1 d.K.F.s.o X f a S S A s S S S S k k v v v v v v v v v v v v v v ",
"v v v v v v v v v v v v v v v v q.| v w.# S.).T.V.&.O f W A ' i.I.`._.U.Z.c.p.h S D S S S :.S P k v v v v v v v v v v v v v v v ",
"v v v v v v v v v v v v v v v v K &.j X.4 z.H.L.J.f.N ] &.2 H b.~.}. X.X'.R.m.x S D Y Q 2.:.S P P ! ! ! v v v v v v v v v v v v ",
"v v v v v v v v v v v v v v v v ) A h 9.g w k.].[.j.0 d S 8.) 5.n.!.{.|.^.D.x.%.S ' ' Q 2.A f h ! ! ! ! v v v v v v v v v v v v ",
"v v v v v v v v v v v v v v v v x &.} J l k g =.=.h s < V | j G l.W.(.Q.C.k 1 # A Y Q Q S f s h v v v v v v v v v v v v v v v v ",
"v v v v v v v v v v v v v v v v x z q.o.y.i p 5   V A % > >.#. .%.i.h.a.*.= - +.A S Q W S f s A x x v v v v v v v v v v v v v v ",
"v v v v v v v v v v v v v v v v ] v c C { , f 4 u 0 h S $ F ' &.S 3 $ % f m t r S :.2.S h s s S { { ! ! v v v v v v v v v v v v ",
"v v v v v v v v v v v v v v v v v v { { v h s > > f s > s :.A S :.% s S f s s s A 2.2.S s % h { v v v v v v v v v v v v v v v v ",
"v v v v v v v v v v v v v v v v v v n n v h s > % s > > s S f A :.% s S S f s s S Q Q S f > h v v v v v v v v v v v v v v v v v ",
"v v v v v v v v v v v v v v v v v v v v v h s s % s > > s S f f S > s A S S s s A S S S f > h v v v v v v v v v v v v v v v v v ",
"v v v v v v v v v v v v v v v v v v v v v k h s s > > s s S f A A s s Z S A > s A S A A f > h v v v v v v v v v v v v v v v v v ",
"v v v v v v v v v v v v v v v v ! v v v v v k h s > > s s A f A A f A A S f s s A A h h s a h v v v v v v v v v v v v v v v v v ",
"v v v v v v v v v v v v v v v v ! ! v ! ! v P k f > > f , f f A A f S f s s s s f h h h f a h v v v v v v v v v v v v v v v v v ",
"v v v v v v v v v v v v v v v v ! v v v ! ! P L s > f A > s s f f f A f > s s > s s h S h s h v v v v v v v v v v v v v v v v v ",
"v v v v v v v v v v v v v v v v v v v v v v ! L s s A S > > > f A s S f % s s > % s h P S s h v v v v v v v v v v v v v v v v v ",
"v v v v v v v v v v v v v v v v { n x v v v v k h h v S s , % h S s S f s > > 1 a a s k k h h k v v v v v v v v v v v v v v v v ",
"v v v v v v v v v v v v v v v v n v x v v ! v v h k P k s s > h A s S f f f s , s s h k v v x v v v v v v v v v v v v v v v v v ",
"v v v v v v v v v v v v v v v v v v v v v ! ! v v ! ! k s f s h A s S f h A s > h h h k v v v ! v v v v v v v v v v v v v v v v ",
"v v v v v v v v v v v v v v v v v v v v v v v v ! ! ! k s Z f h A s S s h S f > k k k v v ! ! ! v v v v v v v v v v v v v v v v ",
"v v v v v v v v v v v v v v v v v ! ! v v v v v v { v k s S f h A s S s k P h s h v ! ! v v v ! v v v v v v v v v v v v v v v v ",
"v v v v v v v v v v v v v v v v ! ! ! ! v v v v v x x v h S f h h s 2.S v ! k h h v ! ! v v v v v v v v v v v v v v v v v v v v ",
"v v v v v v v v v v v v v v v v v ! ! ! v v v ! ! x v W S S f k A s S S ! ! x k x v ! v v v v v v v v v v v v v v v v v v v v v ",
"v v v v v v v v v v v v v v v v v v ! ! v v ! ! ! v v ) S S h x S s S h v ! x v v ! v x x ! ! v v v v v v v v v v v v v v v v v ",
"v v v v v v v v v v v v v v v v v v v v v v v v v v v ! ! ! ! ! s h k v v v v v v v v v v v v v v v v v v v v v v v v v v v v v ",
"v v v v v v v v v v v v v v v v v v v v v v v v v v v v v v v v h k k v v v v v v v v v v v v v v v v v v v v v v v v v v v v v ",
"v v v v v v v v v v v v v v v v v v v v v v v v v v v v v v v v k x v v v v v v v v v v v v v v v v v v v v v v v v v v v v v v ",
"v v v v v v v v v v v v v v v v v v v v v v v v v v v v v x x x x v v v ! ! v v v v v v v v v v v v v v v v v v v v v v v v v v ",
"v v v v v v v v v v v v v v v v v v v v v v v v v v v v v x x x n v n ! ! v v v v v v v v v v v v v v v v v v v v v v v v v v v ",
"v v v v v v v v v v v v v v v v v v v v v v v v v v v v v v v v v v v v v v v v v v v v v v v v v v v v v v v v v v v v v v v v ",
"v v v v v v v v v v v v v v v v v v v v v v v v v v v v v v v v v v v v v v v v v v v v v v v v v v v v v v v v v v v v v v v v ",
"v v v v v v v v v v v v v v v v v v v v v v v v v v v ! ! ! ! ! v v v v v v v { v v v v v v v v v v v v v v v v v v v v v v v v "
};
