/* XPM */
static char *_b8376c1f2f24fafe4587d2450494827nxb5TkhES0YdLHBM[] = {
/* columns rows colors chars-per-pixel */
"100 100 3 1 ",
"  c None",
". c black",
"X c white",
/* pixels */
"                                                                                                    ",
"                                       XXXXXXXXXXXXXXXXXXXXXX                                       ",
"                                  XXXXXXXXXXXXXXXXXXXXXXXXXXXXXXXX                                  ",
"                               XXXXXXXXXXXXXXXXXXXXXXXXXXXXXXXXXXXXXX                               ",
"                            XXXXXXXXXXXXXXXXXXXXXXXXXXXXXXXXXXXXXXXXXXXX                            ",
"                          XXXXXXXXXXXXXXXXXXXXXXXXXXXXXXXXXXXXXXXXXXXXXXXX                          ",
"                        XXXXXXXXXXXXXXXXXXXXXXXXXXXXXXXXXXXXXXXXXXXXXXXXXXXX                        ",
"                      XXXXXXXXXXXXXXXXXXXXXXXXXXXXXXXXXXXXXXXXXXXXXXXXXXXXXXXX                      ",
"                     XXXXXXXXXXXXXXXXXXXXXXXXXXXXXXXXXXXXXXXXXXXXXXXXXXXXXXXXXX                     ",
"                   XXXXXXXXXXXXXXXXXXXXXXXXXXXXXXXXXXXXXXXXXXXXXXXXXXXXXXXXXXXXXX                   ",
"                  XXXXXXXXXXXXXXXXXXXXXXXXXXXXXXXXXXXXXXXXXXXXXXXXXXXXXXXXXXXXXXXX                  ",
"                 XXXXXXXXXXXXXXXXXXXXXXXXXXXXXXX    XXXXXXXXXXXXXXXXXXXXXXXXXXXXXXX                 ",
"               XXXXXXXXXXXXXXXXXXXXXXXXXXXX              XXXXXXXXXXXXXXXXXXXXXXXXXXXX               ",
"              XXXXXXXXXXXXXXXXXXXXXXXXXX                    XXXXXXXXXXXXXXXXXXXXXXXXXX              ",
"             XXXXXXXXXXXXXXXXXXXXXXXX                          XXXXXXXXXXXXXXXXXXXXXXXX             ",
"            XXXXXXXXXXXXXXXXXXXXXXX                              XXXXXXXXXXXXXXXXXXXXXXX            ",
"           XXXXXXXXXXXXXXXXXXXXXX                                  XXXXXXXXXXXXXXXXXXXXXX           ",
"           XXXXXXXXXXXXXXXXXXXX                                      XXXXXXXXXXXXXXXXXXXX           ",
"          XXXXXXXXXXXXXXXXXXXX                                        XXXXXXXXXXXXXXXXXXXX          ",
"         XXXXXXXXXXXXXXXXXXX                                            XXXXXXXXXXXXXXXXXXX         ",
"        XXXXXXXXXXXXXXXXXXX                                              XXXXXXXXXXXXXXXXXXX        ",
"        XXXXXXXXXXXXXXXXXX                                                XXXXXXXXXXXXXXXXXX        ",
"       XXXXXXXXXXXXXXXXX                                                    XXXXXXXXXXXXXXXXX       ",
"      XXXXXXXXXXXXXXXXX                    XXXXXXXXXXXXXX                    XXXXXXXXXXXXXXXXX      ",
"      XXXXXXXXXXXXXXXX                 XXXXXXXXXXXXXXXXXXXXXX                 XXXXXXXXXXXXXXXX      ",
"     XXXXXXXXXXXXXXXX                XXXXXXXXXXXXXXXXXXXXXXXXXX                XXXXXXXXXXXXXXXX     ",
"     XXXXXXXXXXXXXXXX              XXXXXXXXXXXXXXXXXXXXXXXXXXXXXX              XXXXXXXXXXXXXXXX     ",
"    XXXXXXXXXXXXXXXX              XXXXXXXXXXXXXXXXXXXXXXXXXXXXXXXX              XXXXXXXXXXXXXXXX    ",
"    XXXXXXXXXXXXXXX              XXXXXXXXXXXXXXXXXXXXXXXXXXXXXXXXXX              XXXXXXXXXXXXXXX    ",
"   XXXXXXXXXXXXXXX              XXXXXXXXXXXXXXXX    XXXXXXXXXXXXXXXX              XXXXXXXXXXXXXXX   ",
"   XXXXXXXXXXXXXXX             XXXXXXXXXXXXX            XXXXXXXXXXXXX             XXXXXXXXXXXXXXX   ",
"   XXXXXXXXXXXXXX             XXXXXXXXXXXX                XXXXXXXXXXXX             XXXXXXXXXXXXXX   ",
"  XXXXXXXXXXXXXX             XXXXXXXXXXX                    XXXXXXXXXXX             XXXXXXXXXXXXXX  ",
"  XXXXXXXXXXXXXX            XXXXXXXXXXX                      XXXXXXXXXXX            XXXXXXXXXXXXXX  ",
"  XXXXXXXXXXXXX            XXXXXXXXXXX                        XXXXXXXXXXX            XXXXXXXXXXXXX  ",
" XXXXXXXXXXXXXX            XXXXXXXXXX                          XXXXXXXXXX            XXXXXXXXXXXXXX ",
" XXXXXXXXXXXXX            XXXXXXXXXX                            XXXXXXXXXX            XXXXXXXXXXXXX ",
" XXXXXXXXXXXXX            XXXXXXXXX                              XXXXXXXXX            XXXXXXXXXXXXX ",
" XXXXXXXXXXXX            XXXXXXXXX                                XXXXXXXXX            XXXXXXXXXXXX ",
" XXXXXXXXXXXX            XXXXXXXX                                  XXXXXXXX            XXXXXXXXXXXX ",
"XXXXXXXXXXXXX           XXXXXXXXX                                  XXXXXXXXX           XXXXXXXXXXXXX",
"XXXXXXXXXXXX            XXXXXXXX                                    XXXXXXXX            XXXXXXXXXXXX",
"XXXXXXXXXXXX            XXXXXXXX            XXXXXXXXXXX             XXXXXXXX            XXXXXXXXXXXX",
"XXXXXXXXXXXX            XXXXXXX         XXXX           XXXXX         XXXXXXX            XXXXXXXXXXXX",
"XXXXXXXXXXX            XXXXXXXX      XXX                   XX        XXXXXXXX            XXXXXXXXXXX",
"XXXXXXXXXXX            XXXXXXX      XX                       X        XXXXXXX            XXXXXXXXXXX",
"XXXXXXXXXXX            XXXXXXX     XX                         XX      XXXXXXX            XXXXXXXXXXX",
"XXXXXXXXXXX            XXXXXXX    XX                           X      XXXXXXX            XXXXXXXXXXX",
"XXXXXXXXXXX            XXXXXXX    X        XXXXXXXXXX                 XXXXXXX            XXXXXXXXXXX",
"XXXXXXXXXX             XXXXXX           XXXXXXXXXXXXXXXXX              XXXXXX             XXXXXXXXXX",
"XXXXXXXXXX             XXXXXX         XXX               XXX            XXXXXX             XXXXXXXXXX",
"XXXXXXXXXX             XXXXXX        XX       XXX         XX           XXXXXX             XXXXXXXXXX",
"XXXXXXXXXX             XXXXXX      XXX       XXXXX         XXX         XXXXXX             XXXXXXXXXX",
"XXXXXXXXXXX            XXXXXX       XX      XX  XXX       XX           XXXXXX            XXXXXXXXXXX",
"XXXXXXXXXXX            XXXXXX        XX     X    XX     XXX            XXXXXX            XXXXXXXXXXX",
"XXXXXXXXXXX            XXXXXXX        XXX   X X   X    XX             XXXXXXX            XXXXXXXXXXX",
"XXXXXXXXXXX            XXXXXXX          XX       XX  XXX              XXXXXXX            XXXXXXXXXXX",
"XXXXXXXXXXX            XXXXXXX           XXX  XXXX  XX                XXXXXXX            XXXXXXXXXXX",
"XXXXXXXXXXXX           XXXXXXX             XXXXXXXXXX                 XXXXXXX           XXXXXXXXXXXX",
"XXXXXXXXXXXX           XXXXXXXX                                      XXXXXXXX           XXXXXXXXXXXX",
"XXXXXXXXXXXX            XXXXXXX                                      XXXXXXX            XXXXXXXXXXXX",
"XXXXXXXXXXXXX           XXXXXXXX                                    XXXXXXXX           XXXXXXXXXXXXX",
" XXXXXXXXXXXX           XXXXXXXX                                    XXXXXXXX           XXXXXXXXXXXX ",
" XXXXXXXXXXXX           XXXXXXXXX                                  XXXXXXXXX           XXXXXXXXXXXX ",
" XXXXXXXXXXXXX           XXXXXXXX                                  XXXXXXXX           XXXXXXXXXXXXX ",
" XXXXXXXXXXXXX           XXXXXXXXX                                XXXXXXXXX           XXXXXXXXXXXXX ",
" XXXXXXXXXXXXXX           XXXXXXXXX                              XXXXXXXXX           XXXXXXXXXXXXXX ",
"  XXXXXXXXXXXXX           XXXXXXXXXX                            XXXXXXXXXX           XXXXXXXXXXXXX  ",
"  XXXXXXXXXXXXXX           XXXXXXXXXX                          XXXXXXXXXX           XXXXXXXXXXXXXX  ",
"  XXXXXXXXXXXXXX           XXXXXXXXXXX                        XXXXXXXXXXX           XXXXXXXXXXXXXX  ",
"   XXXXXXXXXXXXXX           XXXXXXXXXXX                      XXXXXXXXXXX           XXXXXXXXXXXXXX   ",
"   XXXXXXXXXXXXXXX           XXXXXXXXXXX                    XXXXXXXXXXX           XXXXXXXXXXXXXXX   ",
"   XXXXXXXXXXXXXXX            XXXXXXXXXXXX                XXXXXXXXXXXX            XXXXXXXXXXXXXXX   ",
"    XXXXXXXXXXXXXXX            XXXXXXXXXXXXX            XXXXXXXXXXXXX            XXXXXXXXXXXXXXX    ",
"    XXXXXXXXXXXXXXXX            XXXXXXXXXXXXXXXX    XXXXXXXXXXXXXXXX            XXXXXXXXXXXXXXXX    ",
"     XXXXXXXXXXXXXXXX            XXXXXXXXXXXXXXXXXXXXXXXXXXXXXXXXXX            XXXXXXXXXXXXXXXX     ",
"     XXXXXXXXXXXXXXXX             XXXXXXXXXXXXXXXXXXXXXXXXXXXXXXXX             XXXXXXXXXXXXXXXX     ",
"      XXXXXXXXXXXXXXXX             XXXXXXXXXXXXXXXXXXXXXXXXXXXXXX             XXXXXXXXXXXXXXXX      ",
"      XXXXXXXXXXXXXXXXX              XXXXXXXXXXXXXXXXXXXXXXXXXX              XXXXXXXXXXXXXXXXX      ",
"       XXXXXXXXXXXXXXXXX               XXXXXXXXXXXXXXXXXXXXXX               XXXXXXXXXXXXXXXXX       ",
"        XXXXXXXXXXXXXXXXXX                 XXXXXXXXXXXXXX                 XXXXXXXXXXXXXXXXXX        ",
"        XXXXXXXXXXXXXXXXXXX                                              XXXXXXXXXXXXXXXXXXX        ",
"         XXXXXXXXXXXXXXXXXXX                                            XXXXXXXXXXXXXXXXXXX         ",
"          XXXXXXXXXXXXXXXXXXXX                                        XXXXXXXXXXXXXXXXXXXX          ",
"           XXXXXXXXXXXXXXXXXXXX                                      XXXXXXXXXXXXXXXXXXXX           ",
"           XXXXXXXXXXXXXXXXXXXXXX                                  XXXXXXXXXXXXXXXXXXXXXX           ",
"            XXXXXXXXXXXXXXXXXXXXXXX                              XXXXXXXXXXXXXXXXXXXXXXX            ",
"             XXXXXXXXXXXXXXXXXXXXXXXX                          XXXXXXXXXXXXXXXXXXXXXXXX             ",
"              XXXXXXXXXXXXXXXXXXXXXXXXXX                    XXXXXXXXXXXXXXXXXXXXXXXXXX              ",
"               XXXXXXXXXXXXXXXXXXXXXXXXXXXX              XXXXXXXXXXXXXXXXXXXXXXXXXXXX               ",
"                 XXXXXXXXXXXXXXXXXXXXXXXXXXXXXXX    XXXXXXXXXXXXXXXXXXXXXXXXXXXXXXX                 ",
"                  XXXXXXXXXXXXXXXXXXXXXXXXXXXXXXXXXXXXXXXXXXXXXXXXXXXXXXXXXXXXXXXX                  ",
"                   XXXXXXXXXXXXXXXXXXXXXXXXXXXXXXXXXXXXXXXXXXXXXXXXXXXXXXXXXXXXXX                   ",
"                     XXXXXXXXXXXXXXXXXXXXXXXXXXXXXXXXXXXXXXXXXXXXXXXXXXXXXXXXXX                     ",
"                      XXXXXXXXXXXXXXXXXXXXXXXXXXXXXXXXXXXXXXXXXXXXXXXXXXXXXXXX                      ",
"                        XXXXXXXXXXXXXXXXXXXXXXXXXXXXXXXXXXXXXXXXXXXXXXXXXXXX                        ",
"                          XXXXXXXXXXXXXXXXXXXXXXXXXXXXXXXXXXXXXXXXXXXXXXXX                          ",
"                            XXXXXXXXXXXXXXXXXXXXXXXXXXXXXXXXXXXXXXXXXXXX                            ",
"                               XXXXXXXXXXXXXXXXXXXXXXXXXXXXXXXXXXXXXX                               ",
"                                  XXXXXXXXXXXXXXXXXXXXXXXXXXXXXXXX                                  "
};
