/* XPM */
static char *_278cf02ac7a4390c4d2b297dfb90fb7DoVYRknwtsTznE3V[] = {
/* columns rows colors chars-per-pixel */
"64 64 173 2 ",
"   c #16070C",
".  c #1E0A0D",
"X  c #1D1500",
"o  c #14100F",
"O  c #0F0E16",
"+  c #0F001A",
"@  c #0D0918",
"#  c #120C14",
"$  c #140D1D",
"%  c #1A0D19",
"&  c #061012",
"*  c #0D1415",
"=  c #031814",
"-  c #0F1D10",
";  c #0D1819",
":  c #141614",
">  c #1C1213",
",  c #141817",
"<  c #16121C",
"1  c #19131E",
"2  c #161A1E",
"3  c #1C191E",
"4  c #27071E",
"5  c #230B1C",
"6  c #290D1B",
"7  c #24151C",
"8  c #261C1C",
"9  c #2A1B1D",
"0  c #150D23",
"q  c #1B0E21",
"w  c #1C072B",
"e  c #160C2E",
"r  c #1A0C29",
"t  c #0C1424",
"y  c #011D24",
"u  c #08172E",
"i  c #0C1E28",
"p  c #151222",
"a  c #1A1323",
"s  c #131924",
"d  c #1C1B24",
"f  c #15132B",
"g  c #1C152B",
"h  c #161C2D",
"j  c #1D1A2C",
"k  c #140C35",
"l  c #1B0D33",
"z  c #0C1A35",
"x  c #1D1633",
"c  c #1F1935",
"v  c #1D173A",
"b  c #1E1A39",
"n  c #210722",
"m  c #2A0524",
"M  c #220C24",
"N  c #2A0821",
"B  c #230D2A",
"V  c #2D0E2C",
"C  c #300D2E",
"Z  c #221525",
"A  c #2B1627",
"S  c #211C24",
"D  c #2A1D24",
"F  c #22142C",
"G  c #2C142C",
"H  c #231B2C",
"J  c #291D2E",
"K  c #35162D",
"L  c #34182E",
"P  c #220C30",
"I  c #211534",
"U  c #291433",
"Y  c #251D32",
"T  c #201A34",
"R  c #211B35",
"E  c #231A35",
"W  c #201A36",
"Q  c #211B37",
"!  c #231A37",
"~  c #221935",
"^  c #231E35",
"/  c #211D36",
"(  c #201C37",
")  c #221C36",
"_  c #221D34",
"`  c #251D35",
"'  c #251E36",
"]  c #221B34",
"[  c #291E31",
"{  c #2D1E31",
"}  c #2A1E34",
"|  c #2A1D34",
" . c #201938",
".. c #211A39",
"X. c #211939",
"o. c #221C38",
"O. c #211D38",
"+. c #241E3A",
"@. c #211B39",
"#. c #2D1F39",
"$. c #281D3D",
"%. c #291F3C",
"&. c #311335",
"*. c #321436",
"=. c #361830",
"-. c #301E34",
";. c #08242F",
":. c #0E212F",
">. c #1D2726",
",. c #102B22",
"<. c #15222A",
"1. c #162731",
"2. c #172435",
"3. c #132233",
"4. c #192033",
"5. c #1B2333",
"6. c #1F3133",
"7. c #202022",
"8. c #2C2827",
"9. c #26202C",
"0. c #24222D",
"q. c #24212C",
"w. c #28202F",
"e. c #3C202C",
"r. c #212030",
"t. c #242230",
"y. c #272032",
"u. c #222036",
"i. c #252436",
"p. c #252132",
"a. c #2A2333",
"s. c #282035",
"d. c #292234",
"f. c #2B2434",
"g. c #292233",
"h. c #222A37",
"j. c #282C35",
"k. c #222439",
"l. c #222038",
"z. c #292138",
"x. c #2B233D",
"c. c #352530",
"v. c #271142",
"b. c #211D40",
"n. c #281C44",
"m. c #291656",
"M. c #1A2042",
"N. c #08587D",
"B. c #006464",
"V. c #0F6A63",
"C. c #045884",
"Z. c #204595",
"A. c #006086",
"S. c #00B79E",
"D. c #0DAFBE",
"F. c #00AEC0",
"G. c #00B3CA",
"H. c #03BCCC",
"J. c #00AED1",
"K. c #00B7D3",
"L. c #18B6D3",
"P. c #02AFE1",
"I. c #07A6E8",
"U. c #13B3E5",
"Y. c #40D6EE",
"T. c #5ED4FF",
"R. c #62D9ED",
"E. c #69D9F1",
"W. c #6BDAFF",
"Q. c #5DE1E5",
"!. c #59E7E8",
"~. c #5AE8FF",
"^. c #61E5F4",
/* pixels */
"c c c c c c c c c c c c c c c c c c c c c c c c c c c c c c c c c c c c c c c c c c c c c c c c c c c c c c c c c c c c c c c c ",
"c c c c c c c c c c c c c c c c c c c c c c c c c c c c c c c c c c c c c c c c c c c c c c c c c c c c c c c c c c c c c c c c ",
"c c c c c c c c c c c c c c c c c c c c c c c c c c c c c c c c c c c c c c c c c c c c c c c c c c c c c c c c c c c c c c c c ",
"c c c c c c c c c c c c c c c c c c c c c c c c c c c c c c c c c c c c c c c c c c c c c c c c c c c c c c c c c c c c c c c c ",
"c c c c c c c c c c c c c c c c c c c c c c c c c c c c c c c c c c c c c c c c c c c c c c c c c c c c c c c c c c c c c c c c ",
"c c c c c c c c c c c c c c c c c c c c c c c c c c c c c c c c c c c c c c c c c c c c c c c c c c c c c c c c c c c c c c c c ",
"c c c c c c c c c c c c c c c c c c c c c c c c c c c c c c c c c c c c c c c c c c c c c c c c c c c c c c c c c c c c c c c c ",
"c c c c c c c c c c c c c c c c c c c c c c c c c c c c c c c c c c c c c c c c c c c c c c c c c c c c c c c c c c c c c c c c ",
"c c c c c c c c c c c c c c c c c c c c c c c c c c c b ..c x x ..c x c x x x Q x x c c c c c c c c c c c c c c c c c c c c c c ",
"c c c c c c c c c c c c c c c c c c c c c c c c c O.c c c x x Q Q Q c Q c ..c ..x x c c c c c c c c c c c c c c c c c c c c c c ",
"c c c c c c c c c c c c c c c c c c c c c c c c c ( c x c Q ] ( ` ` ` +.c ..b b c c c c c c c c c c c c c c c c c c c c c c c c ",
"c c c c c c c c c c c c c c c c c c c c c c c c c Q c x Q ( ] ] S H d.Y ( Q b b c c c c c c c c c c c c c c c c c c c c c c c c ",
"c c c c c c c c c c c c c c c c c c c c c c c c Q O.Q x ( ] g a < 1 0.S d.x ( c c c c c c c c c c c c c c c c c c c c c c c c c ",
"c c c c c c c c c c c c c c c c c c c c c c c c c c c Q ` H p $ < < H H f.H ` ] c c c c c c c c c c c c c c c c c c c c c c c c ",
"c c c c c c c c c c c c c c c c c c c c c c c c x x x Q Y g 1 1 p p a H Y E H H c c c c c c x x c c c c c c c c c c c c c c c c ",
"c c c c c c c c c c c c c c c c c c c c c c c c Q x c Q ] a $ a s f p Y g F 0 g c c c c c c x x c c c c c c c c c c c c c c c c ",
"c c c c c c c c c c c c c c c c Q c c c c c c c b.I c j 0., * 2 V o p M 8 H e s ] Q x c Q x c v c c c c c c c c c c c c c c c c ",
"c c c c c c c c c c c c c c c c c c c c c c c c b x u.H G s N $ n u f % | H S ] j ] x c ( x Q ..c c c c c c c c c c c c c c c c ",
"c c c c c c c c c c c c c c c c c c c c c c c c x &.B ;.c + V.f B S.g = ..1.8.C a j x c Q x c c c c c c c c c c c c c c c c c c ",
"c c c c c c c c c c c c c c c c c c c c c c c Q b ( k.j 0 h r 0 r m 0 a $ =.r.g.a H c ..Q x c c c c c c c c c c c c c c c c c c ",
"c c c c c c c c c c c c c c c c c c c c c c c Q c B F i.q p s < $ : q 0 1 { b d a ] Q ..O.x Q c c c c c c c c c c c c c c c c c ",
"c c c c c c c c c c c c c c c c c c c c c c c c b $.2.a j.O < 3 1 d % d d y.f g a H x c Q c Q c c c c c c c c c c c c c c c c c ",
"c c c c c c c c c c c c c c c c c c c c c c c c c x E d.L H 5 % < @ Z d { s 1 p a H x c c x c c c c c c c c c c c c c c c c c c ",
"c c c c c c c c c c c c c c c c Q c c c c c c c c U ] h H -.y q f 0 q H M s 5 a S y.Q c c c Q c c c c c c c c c c c c c c c c c ",
"c c c c c c c c c c c c c c c c x Q Q c c c ..b v 4.g F Z H t r a a S d $ p a d [ H ] c x c Q W c c c c c c c c c c c c c c c c ",
"c c c c c c c c c c c c c c c c c Q Q c c c c c ] H #.% 2 p A a a ] Y H a 0 a z.[ Y Y ] x c Q W c c c c c c c c c c c c c c c c ",
"c c c c c c c c c c c c c c c c x c c c Q Q Q Q j | J j Z 1 r.M $ g.0.$ $ g F H 0.H y.| ] Q c c c c c c c c c c c c c c c c c c ",
"c c c c c c c c c c c c c c c c c c c x Q ] ] x d.3.$ n.M.* 5.a q.a.d 1 S S H g.j j H [ E ] c c c c c c c c c c c c c c c c c c ",
"c c c c c c c c c c c c c c c c Q c c x x j j j 5.g J M L Z h.$ j z.] 0 $ H | 0 a a d H E ] O.b c c c c c c c c c c c c c c c c ",
"c c c c c c c c c c c c c c c c c c c Q x x Q ( 9 : b % 1 z 8 9 0.s.` s.a $ g a H d S H Y Y ( c c c c c c c c c c c c c c c c c ",
"c c c c c c c c c c c c c c c c c c c Q c c O.$.k c.K q.1 G a.v.3 w.H g < : d p Y S j 0.y.] ] I c c c c c c c c c c c c c c c c ",
"c c c c c c c c c c c c c c c c Q x c c c x c ..<.>.H P.P.$ d k.g.d.0 0 y.H ] O.F a a j q.] Y ] c c c c c c c c c c c c c c c c ",
"c c c c c c c c c c c c c c c c Q c c c Q O.O.+.< R.~.C.& t E { 4.x L.F.m V w 6 0.H a ] d.] ] x c c c Q Q c c c c c c c c c c c ",
"c c c c c c c c c c c c c c c c c c c c Q Q Q O.X G.Z.B.D r f.h | U.Y.^.T.K.A.y q.H H Y s.j ] x c c c c c c c c c c c c c c c c ",
"c c c c c c c c c c c c c c c c c c c c c c c c V t !.E.. > 2.2.G - H.W.Q.H.N.x H y.Y ` H g j c c c c c c c c c c c c c c c c c ",
"c c c c c c c c c c c c c c c c c c c c c c c c F l d a x m ,.F $.m.D.I.J.# 7 < j H d.Y g a g c Q c c c c c c Q c c c c c c c c ",
"c c c c c c c c c c c c c c c c c c c c Q Q Q c x s 1 = ; U r e.H D 1 % i q # l H Y ` j a g x c Q c c c c c c Q c c c c c c c c ",
"c c c c c c c c c c c c c c c c c c c c Q Q Q Q x 7 $ a p > 4 %.S 6.  ; x.c $ < H Y Y a a j Q b c c c c c c c c c c c c c c c c ",
"c c c c c c c c c c c c c c c c c c c c c Q Q Q j f B * a * h :.w *.a 3.B d < a y.Y Y a a ] Q b c c c c c c c c c c c c c c c c ",
"c c c c c c c c c c c c c c c c Q Q c c c c Q Q x g r > a q B 7.p l.Z , | g.. t y.Y Y 0 p ( Q v c c c Q Q c c c c c c c c c c c ",
"c c c c c c c c c c c c c c c c c c c x x c Q ..x j g 1 1 1 a g.$ S a j a S d 1 H g H 0 0 ` x Q c c c c c c c c c c c c c c c c ",
"c c c c c c c c c c c c c c c c c c c x x c Q ..c Q g p a d a S a Y 0 d.p S a 1 j a H p 0 ` x c c c c c c c c c c c c c c c c c ",
"c c c c c c c c c c c c c c c c c c c x x c Q ..c ( g a a H 1 1 g H $ g.$ a $ 1 a 0 H a 0 ] x c c c c c c c c c c c c c c c c c ",
"c c c c c c c c c c c c c c c c c c c x x c Q ..c O.g g a y.p $ d S a H a $ $ 1 a $ H g 0 ] Q x c c c c c c c c c c c c c c c c ",
"c c c c c c c c c c c c c c c c c c c x x c Q ..c Q g j g Y $ a 1 S a H a a a 1 g 0 ] ] f x Q x c c c c c c c c c c c c c c c c ",
"c c c c c c c c c c c c c c c c c c c x x c Q ..b ..x Q j H 0 g $ w.a Y 0 H a $ j a ] Q g c Q x c c c c c c c c c c c c c c c c ",
"c c c c c c c c c c c c c c c c c c c x x c Q ..v c c Q ] j a H $ g.q Y 0 ] a p ] j x Q c c c c c c c c c c c c c c c c c c c c ",
"c c c c c c c c c c c c c c c c c c c x x c Q ..v b ..x Q j g H a H a H g H H a ] x c c ..c c c c c c c c c c c c c c c c c c c ",
"c c c c c c c c c c c c c c c c c c c c c c c c x c c c c x ] ] a H a d.H ] ] g c c c c c c c c c c c c c c c c c c c c c c c c ",
"c c c c c c c c c c c c c c c c c c c c c c c c x c c c c x ] ] a Y a ` j ] Q x c c c c c c c c c c c c c c c c c c c c c c c c ",
"c c c c c c c c c c c c c c c c c c c c c c c c x c c c c x ] ] j ] f ] x x Q c c c c c c c c c c c c c c c c c c c c c c c c c ",
"c c c c c c c c c c c c c c c c c c c c c c c c x c c c c c Q ] x ] f x x Q Q c c c c c c c c c c c c c c c c c c c c c c c c c ",
"c c c c c c c c c c c c c c c c c c c c c c c c c c c c c c x Q x Q g c c Q ..c c c c c c c c c c c c c c c c c c c c c c c c c ",
"c c c c c c c c c c c c c c c c c c c c c c c c c c c c c c c c c c c Q c Q c c c c c c c c c c c c c c c c c c c c c c c c c c ",
"c c c c c c c c c c c c c c c c c c c c c c c c c c c c c c c c c c Q Q c c c c c c c c c c c c c c c c c c c c c c c c c c c c ",
"c c c c c c c c c c c c c c c c c c c c c c c c c c Q c c c c c Q c O.c c c c Q c c c c c c c c c c c c c c c c c c c c c c c c ",
"c c c c c c c c c c c c c c c c c c c c c c c c c c c c c c c c c c c c c c c c c c c c c c c c c c c c c c c c c c c c c c c c ",
"c c c c c c c c c c c c c c c c c c c c c c c c c c c c c c c c c c c c c c c c c c c c c c c c c c c c c c c c c c c c c c c c ",
"c c c c c c c c c c c c c c c c c c c c c c c c c c c c c c c c c c c c c c c c c c c c c c c c c c c c c c c c c c c c c c c c ",
"c c c c c c c c c c c c c c c c c c c c c c c c c c c c c c c c c c c c c c c c c c c c c c c c c c c c c c c c c c c c c c c c ",
"c c c c c c c c c c c c c c c c c c c c c c c c c c c c c c c c c c c c c c c c c c c c c c c c c c c c c c c c c c c c c c c c ",
"c c c c c c c c c c c c c c c c c c c c c c c c c c c c c c c c c c c c c c c c c c c c c c c c c c c c c c c c c c c c c c c c ",
"c c c c c c c c c c c c c c c c c c c c c c c c c c c c c c c c c c c c c c c c c c c c c c c c c c c c c c c c c c c c c c c c ",
"c c c c c c c c c c c c c c c c c c c c c c c c c c c c c c c c c c c c c c c c c c c c c c c c c c c c c c c c c c c c c c c c "
};
