/* XPM */
static char *_3d1e34fc965446ca8071f0101fe248fvUv4iGZotWtnwiKf[] = {
/* columns rows colors chars-per-pixel */
"64 64 126 2 ",
"   c #0A0017",
".  c #0B0219",
"X  c #0B081F",
"o  c #0C0B21",
"O  c #0F1025",
"+  c #0B142B",
"@  c #0B182E",
"#  c #101226",
"$  c #11142A",
"%  c #12192E",
"&  c #0B1D33",
"*  c #141A31",
"=  c #181E33",
"-  c #0E2236",
";  c #0B253B",
":  c #0E2A3F",
">  c #1E2232",
",  c #12263A",
"<  c #162B3C",
"1  c #182C3E",
"2  c #222735",
"3  c #242936",
"4  c #0F2C40",
"5  c #112D41",
"6  c #1B2D45",
"7  c #143345",
"8  c #1A3444",
"9  c #1B3847",
"0  c #153649",
"q  c #17394A",
"w  c #1B3D4C",
"e  c #173B50",
"r  c #1D3B52",
"t  c #1D414E",
"y  c #1F4451",
"u  c #1D4558",
"i  c #27434D",
"p  c #204652",
"a  c #214855",
"s  c #23475D",
"d  c #234C5C",
"f  c #2B5059",
"g  c #31595F",
"h  c #254D65",
"j  c #264F68",
"k  c #255365",
"l  c #295666",
"z  c #26546A",
"x  c #29576F",
"c  c #27586C",
"v  c #28596C",
"b  c #325B61",
"n  c #325969",
"m  c #275A72",
"M  c #2A5D73",
"N  c #35626A",
"B  c #2B6076",
"V  c #2E667E",
"C  c #306579",
"Z  c #336A7E",
"A  c #396E7C",
"S  c #3C707C",
"D  c #426E6D",
"F  c #486A68",
"G  c #44716F",
"H  c #4D7372",
"J  c #4F7C76",
"K  c #5C8177",
"L  c #2E6780",
"P  c #2F6980",
"I  c #336C82",
"U  c #3D7483",
"Y  c #407784",
"T  c #407885",
"R  c #4D8589",
"E  c #558985",
"W  c #5D8E83",
"Q  c #548A89",
"!  c #558B8B",
"~  c #568C8B",
"^  c #568D8B",
"/  c #568D8C",
"(  c #578E8C",
")  c #578F8E",
"_  c #5E9085",
"`  c #629488",
"'  c #649688",
"]  c #65988A",
"[  c #65998B",
"{  c #66998B",
"}  c #63988E",
"|  c #62988F",
" . c #629890",
".. c #639890",
"X. c #639990",
"o. c #649990",
"O. c #649A90",
"+. c #649A91",
"@. c #659B92",
"#. c #679D91",
"$. c #679D92",
"%. c #669D93",
"&. c #689E92",
"*. c #699E92",
"=. c #699F92",
"-. c #69A094",
";. c #6AA094",
":. c #6AA194",
">. c #6BA295",
",. c #6CA396",
"<. c #70A491",
"1. c #70A593",
"2. c #72A693",
"3. c #70A694",
"4. c #71A795",
"5. c #72A895",
"6. c #75AA96",
"7. c #76AB96",
"8. c #76AB97",
"9. c #77AC96",
"0. c #76AC97",
"q. c #77AC97",
"w. c #78AD97",
"e. c #74AB98",
"r. c #75AB98",
"t. c #75AC99",
/* pixels */
"  o 5 b _ 8.8. .U m d q : ; ; 5 w d B L V U @.0.8.8.8.8.8._ b 1 o o 1 b _ 8.8.8.8.8.0.@.U V V V V V V U @.0.8.8.8.8.8.8.8.W g w ",
"  $ i G [ 0.8.$.R S N f 8 : ; : 7 y k m V U / @.@. . .&.3.[ G i $ $ i G [ 3.&.} } @.@.^ U V V V V V V U ^ @.@. . .} } &.3.' D g ",
"  > F [ 1.8.8.3.$.} ` J f 7 : ; : 5 7 u m I U T T U U R &.1.[ F > > F [ 1.&.R U U Y Y U Z V V V V V V Z U Y Y U U U U R &.1.' W ",
"  3 K e.-. . . .@.@.$.E N u q 0 0 7 4 0 h m M M M m m A Q -.t.K 2 2 K e.-.Q U V V V V V V V V V V V V V V V V V V V V U Q &.5.0.",
"  3 K -.R U U U Y T T U C M m x x k y q 0 e u d d d d l A R ,.K 2 2 K -.R U Z V V V V V V V V V V V V V V V V V V V V Z U R &.w.",
"  2 H ^ A m M M M M M M M M B B B M k y , - 7 w y y y d z A / H > > H / U V V V V V V V V V V V V V V V V V V V V V V V V U ^ @.",
"  = n A l d d d d d d d d d d d d k M h * O - 7 t p y y d l A n * * n U I V V V V V V V V V V V V V V V V V V V V V V V V Z U U ",
"  * h M d t w w w w w w w w w w q u c s % X + - 5 8 q w t d M h * % h L V V V V V V V V V V V V V V V V V V V V V V V V V V V V ",
"  * h B d w 7 4 4 5 5 5 5 5 5 4 : 0 u w $ . X o o % , 7 w d B h * % h P V V V V V V V V V V V V V V V V V V V V V V V V V V V V ",
"  * h M d 7 - & & & & & & & & & ; 5 w 8 # . . .   X + - 7 d M h * % h P P V B M M M M M M M M M M M M M M M M M M M M B V V V V ",
"  * h M e - + o o o o o o o o O & 5 w 8 # . . . . . X + - e m h * % h P P B k d d d d d d d d d d d d d d d d d d d d k B L V V ",
"  % s k 0 & o   . . . . . . . X + - 0 7 O . . . . . . X & q m h * % h V B z d t t y y y y y y y y y y y y y y y y t t d z B V V ",
"  $ w u 7 & o . . . . . . . . . X + - - o . . . . . . o & q m h * % h B k d p y y y y y y y y y y y y y y y y y y y y p d k B V ",
"  # 8 w 5 & o . . . . . . . . .   X + + X . . . . . . o & 0 z s % * h B d t y y y y y y y y y y y y y y y y y y y y y y t d M P ",
"  # 8 w 5 & o . . . . . . . .     . X X . . . . . .   o & 7 u w # * h B d t y y y y y y y y y y y y y y y y y y y y y y y d M P ",
"  # 8 w , + X . . . . . . . o # # # # O o o o o o o o o + , w 8 O * h B d y y y w w w w y y y y w w w w y y w w w w w w t d k x ",
"  # 8 9 % X . . . . . . . o < 8 8 8 8 5 - & & & & & & @ o % 9 8 O * h B d y p w 7 4 4 7 w p p w 7 4 4 7 w w 7 4 5 5 4 7 w y q 0 ",
"  O 5 7 O   . . . . . . o % 1 8 8 8 8 7 - & & & & & & + X O 5 1 o % s c u w w 0 : ; ; : 0 w w 0 : ; ; : 0 0 : ; ; ; ; : 0 7 : ; ",
". o - - o . . . . . . o < 1 * # # # # O o o o o o o o X . o - - o $ w u 0 4 5 : ; ; ; ; : 5 5 : ; ; ; ; : : ; ; ; ; ; ; : : ; ; ",
". o & & o . . . . . . O 7 7 O     . . . . . . . . . . . . o & & o O 1 q 4 ; ; ; ; ; ; ; ; ; ; ; ; ; ; ; ; ; ; ; ; ; ; ; ; ; ; ; ",
". o & & o . . . . . . o - - o   . . . . . . . . . . . . . o & & o o - 4 : ; ; ; ; ; ; ; ; ; ; ; ; ; ; ; ; ; ; ; ; ; ; ; ; ; ; ; ",
". X + + X   . . .     X + + X . . . . . .     . .         X + + X X + & & & & & & & & & & & & & & & & & & & & & & & & & & & & & ",
". . X X .             . X X . . . . . .                   . X X . . X o o o X X X X X X X X o o o o o o X X X X X X X X o o o o ",
". . o $ * % $ $ % * * * * # .   . .   . $ * * * * * * * $ # # # # # # # # # % * * * * * * # .         . # * * * * * * % # # # # ",
". o , w h s w w s z h h h r #         # r z z h h j z h w 8 8 8 8 8 8 8 8 w s h h h h h h r #         # r j h h h h h s w 8 8 8 ",
"  # 8 d v M k k z m M V P x 6 # . . # 6 x P B B B M x s w 9 t y p p p p y d v B B B B B P x 6 # . . # 6 x P B B B B B v d y p p ",
"  # 8 a d k M x u q u k B V x r # # r x V B k d d p 1 % # * 9 y p p p p p a d d d d d k B V x r # # r x V B k d d d d d a p p p ",
"  O 1 w w u c k 7 : q d v B B s % % s B B v d t w 1 o     # w d y w w w w w w w w w t d v B B s % % s B B v d t w w w w w w w w ",
". o - 5 4 7 u y 5 : w p d d d w # # w h d d p w 7 - o     % s z q : 4 5 5 5 5 : : 7 w p d d d w # # w d d d p w 7 : : 5 5 5 5 5 ",
". o & ; ; 5 w w 5 : 7 w t y y 8 O O 8 y y t w 0 : & + # % 6 h h 7 ; ; ; ; ; ; ; ; : 7 w t y y 8 O O 8 y y t w 7 : ; ; ; ; ; ; ; ",
". o & ; ; 5 w w 5 ; : 7 w p p 8 O O 8 p p w 7 : ; : 7 w s h e 7 : ; ; ; ; ; ; ; ; ; : 7 w p p 8 O O 8 p p w 7 : ; ; ; ; ; ; ; ; ",
". o & ; ; : 0 0 : ; ; : 7 t y 8 O O 8 y t 7 : ; ; : 0 u z h 7 ; ; ; ; ; ; ; ; ; ; ; ; : 7 t y 8 O O 8 y t 7 : ; ; ; ; ; ; ; ; ; ",
". o & ; ; ; : : ; ; ; ; : 7 t 8 # # 8 t 7 : ; ; ; ; : 7 0 7 : ; ; ; ; ; ; ; ; ; ; ; ; ; : 7 t 8 # # 8 t 7 : ; ; ; ; ; ; ; ; ; ; ",
". o & ; ; ; ; ; ; ; ; ; ; 5 w 8 # # 8 w 5 ; ; ; ; ; ; ; ; ; ; ; ; ; ; ; ; ; ; ; ; ; ; ; ; 5 w 8 # # 8 w 5 ; ; ; ; ; ; ; ; ; ; ; ",
". o & ; ; ; ; ; ; ; ; ; ; 5 w 8 # # 8 w 5 ; ; ; ; ; ; ; ; ; ; ; ; ; ; ; ; ; ; ; ; ; ; ; ; 5 w 8 # # 8 w 5 ; ; ; ; ; ; ; ; ; ; ; ",
". o & ; ; ; ; ; ; ; ; ; ; 4 q 1 o o 1 q 4 ; ; ; ; ; ; ; ; ; ; ; ; ; ; ; ; ; ; ; ; ; ; ; ; 4 q 1 o o 1 q 4 ; ; ; ; ; ; ; ; ; ; ; ",
". o & ; ; ; ; ; ; ; ; ; ; ; 4 - o o - 4 ; ; ; ; ; ; ; ; ; ; ; ; ; ; ; ; ; ; ; ; ; ; ; ; ; ; 4 - o o - 4 ; ; ; ; ; ; ; ; ; ; ; ; ",
". o & ; & & & & & & & & ; ; ; & o o & ; ; ; ; ; & & & & ; ; ; ; ; ; ; ; & & & & & & & & ; ; ; & o o & ; ; ; ; ; & & & & ; ; ; ; ",
". o & - + o o o o o o + & ; ; & o o & ; ; ; ; & + o o + & ; ; ; ; ; ; & + o o o o o o + & ; ; & o o & ; ; ; ; & + o o + & ; ; ; ",
". X + + X . . . . . . X + - ; & o o & ; & & & + X     X + & & & & & & + X . . . . . . X + - ; & o o & ; & & & + X     X + & & & ",
". . X X . . . . . . . . X + - & o o & - + o o X . . . . X o o o o o o X . . . . . . . . X + - & o o & - + o o X . . . . X o o o ",
". . . . . . . . . . . .   X + + X X + + X     . . . . . . . . . . . . . . . . . . . . .   X + + X X + + X     . . . . . . . . . ",
". . . . . . . . . . . . . . X X . . X X .   . . . . . .     . . . . . . . . . . . . . . . . X X . . X X .   . . . . . .   . . . ",
". . . . o # # O o o o o o o o o o o o o o o o o o o O # # o . . . . . . o # # O o o o o o o o o o o o o o o o o o o O # # o . . ",
". .   o < 8 8 5 - & & & & & & & & & & & & & & & & - 5 8 8 < o   . .   o < 8 8 5 - & & & & & & & & & & & & & & & & - 5 8 8 < o   ",
". . o * 8 w w q 4 ; ; ; ; ; ; ; ; ; ; ; ; ; ; ; ; 4 q w w 8 * o . . o * 8 w w q 4 ; ; ; ; ; ; ; ; ; ; ; ; ; ; ; ; 4 q w w 8 * # ",
". o < 8 7 5 5 4 ; ; ; ; ; ; ; ; ; ; ; ; ; ; ; ; ; ; 4 5 5 7 8 < o o < 8 7 5 5 4 ; ; ; ; ; ; ; ; ; ; ; ; ; ; ; ; ; ; 4 5 5 5 8 8 ",
"  O 7 q 4 ; ; ; ; ; ; ; ; ; ; ; ; ; ; ; ; ; ; ; ; ; ; ; ; 4 q 5 o o 5 q 4 ; ; ; ; ; ; ; ; ; ; ; ; ; ; ; ; ; ; ; ; ; ; ; ; : q w ",
". o - 4 ; ; ; ; ; ; ; ; ; ; ; ; ; ; ; ; ; ; ; ; ; ; ; ; ; ; 4 - o o - 4 ; ; ; ; ; ; ; ; ; ; ; ; ; ; ; ; ; ; ; ; ; ; ; ; ; ; 4 5 ",
". o & ; ; ; ; ; ; ; ; ; & & & & & & & & & & & & & & ; ; ; ; ; & o o & ; ; ; ; ; ; ; ; ; & & & & & & & & & & & & & & ; ; ; ; ; ; ",
". o & ; ; ; ; ; ; ; ; & + o o o o o o o o o o o o + & ; ; ; ; & o o & ; ; ; ; ; ; ; ; & + o o o o o o o o o o o o + & ; ; ; ; ; ",
". o & ; & & & & & & & + X . . . . . . . . . . . . X + & & & ; & o o & - & & & & & & & + X . . . . . . . . . . . . X + & & & ; ; ",
". o & - + o o o o o o X . . . . . . . . . . . . . . X o o + - & o o & - + o o o o o o X . . . . . . . . . . . . . . X o o + & ; ",
". X + + X . . . . . . . . . . . . . . . . . . . . . . . . X + + X X + + X . . . . . . . . . . . . . . . . . . . . . . . . X + & ",
". . X X . . . . . . . . . . . . . . . . . . . . . . . . . . X X . . X X . . . . . . . . . . . . . . . . . . . . . . . . . . X o ",
". . . . . . . . . . . . . . . . . . . . . . . . . . . . . . . . . . . . . . . . . . . . . . . . . . . . . . . . . . . . . . . . ",
". . . . . . . . . . . . . . . . . . . . . . . . . . . . . . . . . . . . . . . . . . . . . . . . . . . . . . . . . . . . . . . . ",
". . . . . . . . . . . . . . . . . . . . . . . . . . . . . . . . . . . . . . . . . . . . . . . . . . . . . . . . . . . . . . . . ",
". . . . . . . . . . . . . . . . . . . . . . . . . . . . . . . . . . . . . . . . . . . . . . . . . . . . . . . . . . . . . . . . ",
". . . . . . . . . . . . . . . . . . . . . . . . . . . . . . . . . . . . . . . . . . . . . . . . . . . . . . . . . . . . . . . . ",
". . . . . . . . . . . . . . . . . . . . . . . . . . . . . . . . . . . . . . . . . . . . . . . . . . . . . . . . . . . . . . . . ",
". . . . . . . . . . . . . . . . . . . . . . . . . . . . . . . . . . . . . . . . . . . . . . . . . . . . . . . . . . . . . . . . ",
". . . . . . . . . . . . . . . . . . . . . . . . . . . . . . . . . . . . . . . . . . . . . . . . . . . . . . . . . . . . . . . . ",
". . . . . . . . . . . . . . . . . . . . . . . . . . . . . . . . . . . . . . . . . . . . . . . . . . . . . . . . . . . . . . . . "
};
