/* XPM */
static char *_4220f9bd9144cf9bf706a1ec1214c94Hohfts5QvaomVa1U[] = {
/* columns rows colors chars-per-pixel */
"32 32 6 1 ",
"  c #0B0219",
". c #1F4451",
"X c #73A895",
"o c #2E667E",
"O c #0B253B",
"+ c black",
/* pixels */
" .XXo.OO.ooXXXX. .XXXXooooXXXXX.",
" XXXXX.OOOooooXX XXoooooooooooXX",
" Xooooooo.O...oX XoooooooooooooX",
" o.......o O...o ooooooooooooooo",
" o.OOOOOO.   O.o ooooooooooooooo",
" oO     O.    Oo oo...........oo",
" .O      O    Oo o.............o",
" .O           O. o.............o",
" .     ...OOOO . o..OO..OO.OOO.O",
" O    .        O .OOOOOOOOOOOOOO",
" O    O        O OOOOOOOOOOOOOOO",
"                                ",
" .o.ooo   oooo.....oooo   oooo..",
" ..oO.oo oo..  .......oo oo.....",
" OO.O... ...O  oOOOOO... ...OOOO",
" OO.OO.. ..OO.oOOOOOOO.. ..OOOOO",
" OOOOOO. .OOOOOOOOOOOOO. .OOOOOO",
" OOOOOO. .OOOOOOOOOOOOO. .OOOOOO",
" OOOOOOO OOOOOOOOOOOOOOO OOOOOOO",
" O    OO OOO  OOOO    OO OOO  OO",
"       O O             O O      ",
"                                ",
"  ..OOOOOOOOO..   ..OOOOOOOOO.. ",
" .OOOOOOOOOOOOO. .OOOOOOOOOOOOO.",
" OOOOOOOOOOOOOOO OOOOOOOOOOOOOOO",
" OOOOO       OOO OOOOO       OOO",
" O             O O             O",
"                                ",
"                                ",
"                                ",
"                                ",
"                                "
};
